<?xml version="1.0" standalone="no"?>
<svg xmlns="http://www.w3.org/2000/svg" viewBox="0 0 141.364 30.842" width="141.364" height="30.842"><g fill="#ff5576" color="#ff5576" transform="translate(0, 0) scale(0.29)"><svg width="100.0" height="100.0" x="0.0" y="0.0" viewBox="0 0 100 100"><path d="M81.944,16.668C74.999,16.668,62.5,15.001,50,5C40,15,26.667,16.668,18.889,16.668  C15,16.668,12.5,16.25,12.5,16.25v21.475C12.5,82.725,50,95,50,95s37.5-12.275,37.5-57.275V16.25  C87.5,16.25,85.417,16.668,81.944,16.668z M45.313,65L29.375,48.125l4.688-5.625l11.25,7.969L68.75,33.125l4.219,3.75L45.313,65z"></path></svg></g><line x1="41" y1="1" x2="41" y2="28" stroke="#0b0cac" stroke-linecap="round"></line><path fill="#0b0cac" fill-rule="nonzero" d="M0 22.25L3.69 2.24L7.18 2.24L10.89 22.25L7.82 22.25L7.27 18.67L3.61 18.67L3.08 22.25L0 22.25ZM3.96 16.38L6.91 16.38L5.51 6.41L5.38 6.41L3.96 16.38ZM12.66 18.48L12.66 6.12L15.62 6.12L15.62 18.25Q15.62 19.31 15.95 19.73Q16.28 20.14 16.91 20.14L16.91 20.14Q17.36 20.14 17.78 19.90Q18.20 19.65 18.54 19.20L18.54 19.20L18.54 6.12L21.50 6.12L21.50 22.25L19.24 22.25L18.95 20.53L18.94 20.53Q18.59 21.08 18.19 21.45Q17.80 21.82 17.37 22.04Q16.95 22.25 16.50 22.35Q16.05 22.44 15.61 22.44L15.61 22.44Q14.19 22.44 13.42 21.46Q12.66 20.47 12.66 18.48L12.66 18.48ZM27.69 22.44L27.69 22.44Q27.42 22.44 27.06 22.39Q26.70 22.34 26.31 22.15Q25.92 21.96 25.55 21.59Q25.17 21.21 24.88 20.56Q24.59 19.91 24.40 18.95Q24.22 17.99 24.22 16.62L24.22 16.62L24.22 11.50Q24.22 10.14 24.42 9.20Q24.61 8.26 24.93 7.65Q25.24 7.03 25.63 6.69Q26.03 6.34 26.42 6.18Q26.81 6.01 27.17 5.98Q27.53 5.94 27.76 5.94L27.76 5.94Q28.20 5.94 28.58 6.06Q28.97 6.18 29.29 6.37Q29.60 6.56 29.85 6.80Q30.09 7.04 30.26 7.29L30.26 7.29L30.27 7.28L30.18 5.24L30.18 0.94L33.13 0.94L33.13 22.25L30.82 22.25L30.56 20.75Q30.36 21.07 30.11 21.38Q29.85 21.68 29.50 21.92Q29.14 22.16 28.70 22.30Q28.25 22.44 27.69 22.44ZM28.70 20.14L28.70 20.14Q28.99 20.14 29.22 20.04Q29.45 19.95 29.63 19.79Q29.81 19.63 29.95 19.42Q30.08 19.21 30.18 18.98L30.18 18.98L30.18 9.28Q29.95 8.79 29.58 8.44Q29.21 8.10 28.69 8.10L28.69 8.10Q28.36 8.10 28.09 8.21Q27.82 8.33 27.62 8.65Q27.42 8.98 27.31 9.54Q27.20 10.11 27.20 11.02L27.20 11.02L27.20 17.20Q27.20 18.11 27.31 18.68Q27.42 19.25 27.62 19.58Q27.82 19.90 28.10 20.02Q28.37 20.14 28.70 20.14ZM37.76 3.81L37.76 3.81Q36.94 3.81 36.46 3.32Q35.99 2.82 35.99 1.88L35.99 1.88Q35.99 1.35 36.11 0.99Q36.23 0.63 36.46 0.42Q36.69 0.20 37.02 0.10Q37.35 0 37.77 0L37.77 0Q38.65 0 39.11 0.45Q39.56 0.89 39.56 1.88L39.56 1.88Q39.56 2.79 39.10 3.30Q38.64 3.81 37.76 3.81ZM36.22 22.25L36.22 6.12L39.19 6.12L39.19 22.25L36.22 22.25ZM42.62 18.23L42.62 8.23L41.37 8.23L41.37 6.12L42.88 6.12L43.48 1.93L45.59 1.93L45.59 6.12L48.16 6.12L48.16 8.23L45.59 8.23L45.59 18.49Q45.59 19.02 45.69 19.34Q45.79 19.66 45.96 19.85Q46.14 20.03 46.37 20.09Q46.61 20.14 46.86 20.14L46.86 20.14Q47.30 20.14 47.63 20.04Q47.96 19.93 48.27 19.75L48.27 19.75L48.27 21.39Q48.01 21.70 47.71 21.90Q47.41 22.10 47.10 22.22Q46.78 22.35 46.45 22.39Q46.13 22.44 45.81 22.44L45.81 22.44Q45.19 22.44 44.61 22.28Q44.04 22.11 43.59 21.65Q43.15 21.19 42.88 20.37Q42.62 19.55 42.62 18.23L42.62 18.23ZM52.42 22.43L52.42 22.43Q51.67 22.43 51.09 22.13Q50.51 21.83 50.11 21.32Q49.71 20.80 49.51 20.09Q49.30 19.38 49.30 18.55L49.30 18.55Q49.30 17.55 49.55 16.78Q49.79 16.01 50.27 15.39Q50.74 14.77 51.45 14.26Q52.15 13.75 53.07 13.29L53.07 13.29Q53.52 13.07 54.08 12.84Q54.63 12.61 55.07 12.45L55.07 12.45L55.07 10.31Q55.07 9.84 55.03 9.44Q55.00 9.04 54.86 8.74Q54.73 8.44 54.46 8.27Q54.19 8.10 53.72 8.10L53.72 8.10Q53.40 8.10 53.10 8.21Q52.80 8.33 52.58 8.61Q52.35 8.89 52.21 9.36Q52.08 9.83 52.08 10.52L52.08 10.52L52.08 11.23L49.82 11.23Q49.71 10.77 49.66 10.39Q49.61 10.01 49.61 9.63L49.61 9.63Q49.61 8.73 49.92 8.04Q50.23 7.35 50.78 6.88Q51.34 6.41 52.11 6.17Q52.89 5.93 53.81 5.93L53.81 5.93Q55.02 5.93 55.82 6.19Q56.61 6.46 57.09 6.98Q57.56 7.51 57.76 8.31Q57.95 9.11 57.95 10.17L57.95 10.17L57.95 22.25L55.75 22.25L55.54 20.87Q55.05 21.56 54.25 22.00Q53.45 22.43 52.42 22.43ZM53.73 20.14L53.73 20.14Q54.11 20.14 54.46 19.95Q54.82 19.76 55.07 19.48L55.07 19.48L55.07 14.43Q54.83 14.52 54.54 14.65Q54.25 14.78 53.91 14.99L53.91 14.99Q53.59 15.19 53.29 15.47Q52.98 15.75 52.74 16.14Q52.50 16.52 52.35 17.01Q52.21 17.50 52.21 18.09L52.21 18.09Q52.21 19.02 52.57 19.58Q52.93 20.14 53.73 20.14ZM63.89 21.19L63.98 23.17L63.98 27.47L61.02 27.47L61.02 6.12L63.34 6.12L63.61 7.82Q63.81 7.49 64.08 7.15Q64.36 6.81 64.73 6.54Q65.10 6.28 65.56 6.11Q66.02 5.94 66.60 5.94L66.60 5.94Q66.84 5.94 67.19 5.99Q67.54 6.04 67.90 6.22Q68.27 6.41 68.64 6.78Q69.01 7.15 69.30 7.79Q69.59 8.44 69.77 9.40Q69.95 10.36 69.95 11.73L69.95 11.73L69.95 16.62Q69.95 17.99 69.77 18.95Q69.59 19.91 69.29 20.55Q69 21.20 68.63 21.57Q68.25 21.95 67.86 22.14Q67.48 22.32 67.11 22.38Q66.75 22.43 66.48 22.43L66.48 22.43Q65.54 22.43 64.92 22.07Q64.29 21.70 63.89 21.19L63.89 21.19ZM63.98 9.21L63.98 18.96Q64.08 19.20 64.21 19.41Q64.35 19.62 64.53 19.78Q64.71 19.95 64.94 20.04Q65.17 20.14 65.47 20.14L65.47 20.14Q65.80 20.14 66.07 20.02Q66.34 19.90 66.54 19.58Q66.74 19.25 66.85 18.68Q66.96 18.11 66.96 17.20L66.96 17.20L66.96 11.03Q66.96 10.13 66.85 9.56Q66.74 8.99 66.54 8.66Q66.35 8.33 66.08 8.21Q65.81 8.10 65.48 8.10L65.48 8.10Q64.92 8.10 64.56 8.43Q64.21 8.77 63.98 9.21L63.98 9.21ZM72.62 22.25L72.62 6.12L74.79 6.12L75.05 7.76Q75.54 6.84 76.18 6.39Q76.82 5.93 77.48 5.93L77.48 5.93Q78.76 5.93 79.37 6.71Q79.98 7.50 79.98 9.07L79.98 9.07Q79.98 9.27 79.95 9.54Q79.92 9.82 79.87 10.12Q79.82 10.42 79.74 10.72Q79.66 11.02 79.58 11.26L79.58 11.26L77.52 11.26L77.52 9.76Q77.52 9.27 77.46 8.95Q77.39 8.64 77.29 8.44Q77.18 8.25 77.04 8.17Q76.90 8.10 76.73 8.10L76.73 8.10Q76.38 8.10 76.08 8.33Q75.79 8.55 75.59 8.96L75.59 8.96L75.59 22.25L72.62 22.25ZM85.92 22.43L85.92 22.43Q85.41 22.43 84.87 22.35Q84.34 22.27 83.84 22.01Q83.34 21.75 82.90 21.27Q82.46 20.79 82.14 20.00Q81.81 19.22 81.62 18.07Q81.43 16.92 81.43 15.33L81.43 15.33L81.43 12.80Q81.43 11.23 81.63 10.11Q81.82 8.99 82.15 8.23Q82.49 7.46 82.93 7.01Q83.38 6.56 83.88 6.32Q84.38 6.08 84.90 6.01Q85.43 5.93 85.93 5.93L85.93 5.93Q86.41 5.93 86.93 6Q87.45 6.07 87.94 6.30Q88.43 6.53 88.87 6.98Q89.31 7.43 89.64 8.19Q89.98 8.95 90.17 10.08Q90.36 11.21 90.36 12.80L90.36 12.80L90.36 15.33Q90.36 16.90 90.16 18.04Q89.96 19.17 89.63 19.96Q89.29 20.74 88.84 21.23Q88.39 21.71 87.90 21.98Q87.41 22.25 86.90 22.34Q86.39 22.43 85.92 22.43ZM85.95 20.14L85.95 20.14Q86.34 20.14 86.62 19.94Q86.89 19.73 87.06 19.27Q87.23 18.80 87.31 18.03Q87.39 17.26 87.39 16.13L87.39 16.13L87.39 12.15Q87.39 11.02 87.31 10.24Q87.23 9.47 87.06 8.99Q86.89 8.52 86.62 8.31Q86.34 8.10 85.95 8.10L85.95 8.10Q85.52 8.10 85.24 8.31Q84.95 8.52 84.76 8.99Q84.57 9.47 84.49 10.24Q84.41 11.02 84.41 12.15L84.41 12.15L84.41 16.13Q84.41 17.26 84.49 18.03Q84.57 18.80 84.76 19.27Q84.95 19.73 85.24 19.94Q85.52 20.14 85.95 20.14Z" transform="translate(51, 3.374)"></path></svg>